<?xml version="1.0" encoding="utf-8"?>
<!-- Generator: Adobe Illustrator 25.0.0, SVG Export Plug-In . SVG Version: 6.00 Build 0)  -->
<svg version="1.1" width="34" height="34" id="Layer_1" xmlns="http://www.w3.org/2000/svg" xmlns:xlink="http://www.w3.org/1999/xlink" x="0px" y="0px"
	 viewBox="0 0 48.8 63.7" style="enable-background:new 0 0 48.8 63.7;" xml:space="preserve">
<style type="text/css">
	.st0{fill:#FFFFFF;}
	.st1{fill:#3D087B;}
</style>
<g id="_x23_ffffffff">
	<path class="st0" d="M32.6,15c0-2.6-0.2-5.4,0.8-7.9c0.4,2.1,0.5,4.3,0.6,6.5c1.4,0.1,2.8,0.2,4.1,0.3C36.7,15.5,34.5,14.9,32.6,15
		z"/>
</g>
<g id="_x23_3d087bff">
	<path class="st1" d="M28.8,0.9c7-3,15.8,1.5,17.6,8.9c2,6.8-2.4,14.5-9.3,16.2c-6.9,2.1-14.9-2.6-16.4-9.7
		C19.1,10.1,22.8,3.1,28.8,0.9 M29.9,3.2c-5.1,1.7-8.2,7.6-6.7,12.7c1.3,5.7,7.8,9.5,13.3,7.6c5.9-1.5,9.4-8.5,7-14.1
		C41.7,4.1,35.2,1.2,29.9,3.2z"/>
	<path class="st1" d="M4.5,11.6C7,7.8,10.7,5,14.5,2.4c-2.4,3.7-4.5,7.7-4.9,12.2c-1,8.6,3.5,17.5,10.9,21.9c0,5.2,0,10.4,0,15.7
		c-6.3-1.6-12.5-5-16.1-10.6C-1.4,32.8-1.6,20.4,4.5,11.6z"/>
	<path class="st1" d="M19,33.6c2.3-0.9,4.9-2,7.2-0.6c2.2,0.9,4.3,3.4,6.9,2.2c3.2-1.1,8.7-2.7,10.2,1.5c0.6,6.3,0.3,12.7,0.2,19.1
		c0.1,2.9-3.2,3.1-5.3,3.3c-0.1-5,0.3-10.1-0.1-15.1c-0.9,1.1-1.4,2.3-1.2,3.7c-0.2,4.6,0.5,9.4-0.3,14c-1.4,1.1-3.3,0.7-5,0.9
		c-0.4-3.6,0.9-7.6-1.1-10.8c-0.6,3.7,0.4,7.7-0.7,11.2c-2.7,1.9-7.8,0.4-7.9-3.3c-0.3-7.3,0.1-14.6-0.1-21.9
		C22,35.7,20.1,34.8,19,33.6 M24.5,38.9C22.8,41.8,27.9,39.3,24.5,38.9 M24.2,47.6c0.1,1.9-0.4,4.2,1.1,5.7c0.3-4.1,0.3-8.3,0-12.4
		C23.7,42.8,24.4,45.4,24.2,47.6z"/>
	<path class="st1" d="M44.8,36.9c1.3-0.9,2.7-1.9,4-2.8c-1.2,2-2.5,4-3.8,6C45,39.4,44.8,37.7,44.8,36.9z"/>
</g>
</svg>
